<?xml version="1.0" encoding="UTF-8" standalone="no"?>
<!-- Created with Inkscape (http://www.inkscape.org/) -->

<svg
   width="200mm"
   height="200mm"
   viewBox="0 0 200 200"
   version="1.1"
   id="svg1"
   xmlns:xlink="http://www.w3.org/1999/xlink"
   xmlns="http://www.w3.org/2000/svg"
   xmlns:svg="http://www.w3.org/2000/svg">
  <defs
     id="defs1">
    <linearGradient
       id="linearGradient12">
      <stop
         style="stop-color:#0982d1;stop-opacity:1;"
         offset="0.31699353"
         id="stop13" />
      <stop
         style="stop-color:#28a7e2;stop-opacity:0.96862745;"
         offset="0.71895427"
         id="stop15" />
      <stop
         style="stop-color:#75d1fc;stop-opacity:0.94968551;"
         offset="0.88562089"
         id="stop14" />
      <stop
         style="stop-color:#76cffb;stop-opacity:0.94901961;"
         offset="0.97385621"
         id="stop17" />
    </linearGradient>
    <linearGradient
       xlink:href="#linearGradient12"
       id="linearGradient13"
       x1="100.23698"
       y1="30.723064"
       x2="100.23698"
       y2="175.9062"
       gradientUnits="userSpaceOnUse" />
  </defs>
  <path
     id="path1"
     style="display:inline;fill:url(#linearGradient13);fill-opacity:1;stroke-width:0.264583"
     d="m 101.59122,25.068237 a 6.990824,6.990824 0 0 0 -7.945773,3.942395 L 28.073739,174.64515 a 4.8578293,4.8578293 0 0 0 4.420918,6.8523 l 134.531843,0.24236 a 5.7911066,5.7911066 0 0 0 5.27978,-8.19433 L 106.38059,28.979626 a 6.990824,6.990824 0 0 0 -4.78937,-3.911389 z M 99.231669,55.43641 c 2.289101,1.006539 5.867661,6.869256 11.571901,16.447574 9.4479,15.86452 14.90475,26.576457 14.60325,42.661996 -0.32756,17.4758 -3.19668,19.95893 -6.78719,24.68118 -3.5905,4.72226 -11.63081,12.20701 -11.63081,12.20701 0,0 0.30121,11.61605 -0.31006,14.43839 -3.07709,3.38289 -14.277166,2.82868 -16.228467,0.18655 -0.5956,-3.17671 1.021126,-15.32826 1.021126,-15.32826 0,0 -8.214085,-7.36079 -9.65109,-9.42991 -2.150718,-3.09678 -9.614307,-11.19601 -8.266162,-22.07049 0.902517,-7.27993 2.304298,-13.44539 9.293489,-20.698997 5.889566,-6.11237 6.564339,-12.691243 10.177157,-20.692793 0.836548,2.069384 3.637832,4.053211 4.965071,5.157308 -0.625529,-4.814982 0.315913,-2.94463 2.648416,-13.04985 0.30145,-1.305967 0.41558,-5.742974 -0.3762,-10.398332 2.26604,1.609821 10.74994,29.266662 11.46855,30.333033 5.56475,8.257718 -6.42008,-26.604912 -12.498981,-34.444409 z m 15.181501,51.35345 c 3.37957,16.99858 -1.66461,25.30316 -3.47059,30.44001 0.51527,-0.44374 10.65683,-16.0056 3.47059,-30.44001 z M 82.482821,119.3307 c 0,0 -0.877539,6.31166 -0.603581,9.04544 0.72004,7.18524 9.120327,13.33889 12.68398,14.83476 -8.435914,-6.75534 -11.621665,-15.34651 -12.080399,-23.8802 z m 7.885823,49.41869 c 4.360338,1.89271 10.763866,3.03311 16.095656,0.44648 1.09107,3.58253 1.40076,7.28014 1.15445,10.51771 l -18.235059,-0.13126 c -0.01946,-3.63848 0.103998,-6.83212 0.984953,-10.83293 z" />
</svg>
